<svg width="20" height="20" viewBox="0 0 20 20" fill="none" xmlns="http://www.w3.org/2000/svg">
<path d="M5.36669 1.6665H14.625C17.5917 1.6665 18.3334 2.40817 18.3334 5.3665V10.6415C18.3334 13.6082 17.5917 14.3415 14.6334 14.3415H5.36669C2.40835 14.3498 1.66669 13.6082 1.66669 10.6498V5.3665C1.66669 2.40817 2.40835 1.6665 5.36669 1.6665Z" stroke="url(#paint0_linear_305_12075)" stroke-width="1.125" stroke-linecap="round" stroke-linejoin="round"/>
<path d="M10 14.3501V18.3334" stroke="url(#paint1_linear_305_12075)" stroke-width="1.125" stroke-linecap="round" stroke-linejoin="round"/>
<path d="M1.66669 10.833H18.3334" stroke="url(#paint2_linear_305_12075)" stroke-width="1.125" stroke-linecap="round" stroke-linejoin="round"/>
<path d="M6.25 18.333H13.75" stroke="url(#paint3_linear_305_12075)" stroke-width="1.125" stroke-linecap="round" stroke-linejoin="round"/>
<rect x="2" y="1.99951" width="16" height="9" fill="url(#paint4_linear_305_12075)"/>
<defs>
<linearGradient id="paint0_linear_305_12075" x1="2.07652" y1="4.46965" x2="18.5476" y2="5.73928" gradientUnits="userSpaceOnUse">
<stop stop-color="#AA3A38"/>
<stop offset="0.9999" stop-color="#337152"/>
<stop offset="1" stop-color="#2F7336"/>
</linearGradient>
<linearGradient id="paint1_linear_305_12075" x1="10.0246" y1="15.231" x2="11.0185" y2="15.2457" gradientUnits="userSpaceOnUse">
<stop stop-color="#AA3A38"/>
<stop offset="0.9999" stop-color="#337152"/>
<stop offset="1" stop-color="#2F7336"/>
</linearGradient>
<linearGradient id="paint2_linear_305_12075" x1="2.07652" y1="11.0542" x2="10.5535" y2="19.3364" gradientUnits="userSpaceOnUse">
<stop stop-color="#AA3A38"/>
<stop offset="0.9999" stop-color="#337152"/>
<stop offset="1" stop-color="#2F7336"/>
</linearGradient>
<linearGradient id="paint3_linear_305_12075" x1="6.43443" y1="18.5542" x2="12.6826" y2="21.3013" gradientUnits="userSpaceOnUse">
<stop stop-color="#AA3A38"/>
<stop offset="0.9999" stop-color="#337152"/>
<stop offset="1" stop-color="#2F7336"/>
</linearGradient>
<linearGradient id="paint4_linear_305_12075" x1="2.39344" y1="3.9899" x2="18.1287" y2="5.62977" gradientUnits="userSpaceOnUse">
<stop stop-color="#AA3A38"/>
<stop offset="0.9999" stop-color="#337152"/>
<stop offset="1" stop-color="#2F7336"/>
</linearGradient>
</defs>
</svg>
