<svg width="32" height="24" viewBox="0 0 32 24" fill="none" xmlns="http://www.w3.org/2000/svg">
<path d="M15.92 2.20983L12.7067 7.81983H9.49332C8.95999 7.81983 8.43999 7.84983 7.93332 7.92983L9.26665 5.52983L9.31999 5.43983L9.39999 5.27983C9.43999 5.20983 9.46665 5.14983 9.50665 5.09983C11.0533 2.40983 12.7867 1.56983 15.92 2.20983Z" fill="url(#paint0_linear_512_1460)"/>
<path d="M24.9733 8.09002L24.9467 8.08002C24.1467 7.91002 23.3333 7.82002 22.5067 7.82002H14.16L17.16 2.59002L17.2 2.52002C17.3867 2.57002 17.5867 2.64002 17.7867 2.69002L20.7333 3.62002C22.3733 4.13002 23.52 4.66002 24.2267 5.30002C24.3467 5.42002 24.4533 5.53002 24.56 5.66002C24.68 5.80002 24.7733 5.94002 24.8267 6.09002C24.88 6.18002 24.92 6.26002 24.9467 6.35002C25.1467 6.86002 25.16 7.44002 24.9733 8.09002Z" fill="url(#paint1_linear_512_1460)"/>
<path d="M16.6933 17.6601H17.0267C17.4267 17.6601 17.76 17.3901 17.76 17.0601C17.76 16.6401 17.6 16.5801 17.2533 16.4801L16.6933 16.3301V17.6601Z" fill="url(#paint2_linear_512_1460)"/>
<path d="M24.3867 9.51982C23.7867 9.38982 23.16 9.31982 22.5067 9.31982H9.49333C8.58666 9.31982 7.73333 9.44982 6.93333 9.70982C4.61333 10.4598 2.98666 12.1898 2.98666 14.1998V16.1498C2.98666 16.3898 3.01333 16.6198 3.05333 16.8598C3.34666 20.0398 5.61333 21.7398 9.85333 21.9498C10.16 21.9798 10.4667 21.9998 10.8 21.9998H21.2C26.1333 21.9998 28.7333 20.2398 28.9867 16.7398C29 16.5498 29.0133 16.3498 29.0133 16.1498V14.1998C29.0133 11.9898 27.0533 10.1298 24.3867 9.51982ZM17.7067 15.4998C18.32 15.6598 19.1467 15.9998 19.1467 17.0598C19.1467 17.9698 18.2 18.6998 17.0267 18.6998H16.6933V18.9198C16.6933 19.2098 16.3867 19.4398 16 19.4398C15.6133 19.4398 15.3067 19.2098 15.3067 18.9198V18.6998H15.1867C13.9067 18.6998 12.8533 17.8898 12.8533 16.8898C12.8533 16.5998 13.16 16.3698 13.5467 16.3698C13.9333 16.3698 14.24 16.5998 14.24 16.8898C14.24 17.3098 14.6667 17.6598 15.1867 17.6598H15.3067V15.9698L14.2933 15.6998C13.68 15.5398 12.8533 15.1998 12.8533 14.1398C12.8533 13.2298 13.8 12.4998 14.9733 12.4998H15.3067V12.2798C15.3067 11.9898 15.6133 11.7598 16 11.7598C16.3867 11.7598 16.6933 11.9898 16.6933 12.2798V12.4998H16.8133C18.0933 12.4998 19.1467 13.3098 19.1467 14.3098C19.1467 14.5998 18.84 14.8298 18.4533 14.8298C18.0667 14.8298 17.76 14.5998 17.76 14.3098C17.76 13.8898 17.3333 13.5398 16.8133 13.5398H16.6933V15.2298L17.7067 15.4998Z" fill="url(#paint3_linear_512_1460)"/>
<path d="M14.24 14.14C14.24 14.56 14.4 14.62 14.7467 14.72L15.3067 14.87V13.54H14.9733C14.56 13.54 14.24 13.81 14.24 14.14Z" fill="url(#paint4_linear_512_1460)"/>
<defs>
<linearGradient id="paint0_linear_512_1460" x1="8.12971" y1="3.31597" x2="16.0203" y2="3.93959" gradientUnits="userSpaceOnUse">
<stop stop-color="#AA3A38"/>
<stop offset="0.9999" stop-color="#337152"/>
<stop offset="1" stop-color="#2F7336"/>
</linearGradient>
<linearGradient id="paint1_linear_512_1460" x1="14.4292" y1="3.75185" x2="25.1679" y2="4.9889" gradientUnits="userSpaceOnUse">
<stop stop-color="#AA3A38"/>
<stop offset="0.9999" stop-color="#337152"/>
<stop offset="1" stop-color="#2F7336"/>
</linearGradient>
<linearGradient id="paint2_linear_512_1460" x1="16.7196" y1="16.6242" x2="17.7776" y2="16.674" gradientUnits="userSpaceOnUse">
<stop stop-color="#AA3A38"/>
<stop offset="0.9999" stop-color="#337152"/>
<stop offset="1" stop-color="#2F7336"/>
</linearGradient>
<linearGradient id="paint3_linear_512_1460" x1="3.62666" y1="12.1241" x2="29.1315" y2="15.1929" gradientUnits="userSpaceOnUse">
<stop stop-color="#AA3A38"/>
<stop offset="0.9999" stop-color="#337152"/>
<stop offset="1" stop-color="#2F7336"/>
</linearGradient>
<linearGradient id="paint4_linear_512_1460" x1="14.2662" y1="13.8342" x2="15.3243" y2="13.8839" gradientUnits="userSpaceOnUse">
<stop stop-color="#AA3A38"/>
<stop offset="0.9999" stop-color="#337152"/>
<stop offset="1" stop-color="#2F7336"/>
</linearGradient>
</defs>
</svg>
