<svg width="34" height="34" viewBox="0 0 34 34" fill="none" xmlns="http://www.w3.org/2000/svg">
<path d="M19.804 12.45V16.9004H23.794C24.1009 16.9004 24.2544 17.2073 24.2544 17.5143L23.6405 20.43C23.6405 20.5835 23.3336 20.737 23.1801 20.737H19.804V31.9397H15.2001V20.8904H12.5912C12.2843 20.8904 12.1309 20.737 12.1309 20.43V17.5143C12.1309 17.2073 12.2843 17.0539 12.5912 17.0539H15.2001V11.9896C15.2001 9.38075 17.1951 7.38574 19.804 7.38574H23.9475C24.2544 7.38574 24.4078 7.5392 24.4078 7.84613V11.5292C24.4078 11.8361 24.2544 11.9896 23.9475 11.9896H20.2644C19.9574 11.9896 19.804 12.1431 19.804 12.45Z" stroke="#9FA6B9" stroke-width="2.30193" stroke-miterlimit="10" stroke-linecap="round"/>
<path d="M21.3397 31.9405H12.132C4.45889 31.9405 1.38965 28.8712 1.38965 21.1981V11.9904C1.38965 4.31729 4.45889 1.24805 12.132 1.24805H21.3397C29.0128 1.24805 32.0821 4.31729 32.0821 11.9904V21.1981C32.0821 28.8712 29.0128 31.9405 21.3397 31.9405Z" stroke="#9FA6B9" stroke-width="2.30193" stroke-linecap="round" stroke-linejoin="round"/>
</svg>
