<svg width="38" height="38" viewBox="0 0 38 38" fill="none" xmlns="http://www.w3.org/2000/svg">
<path d="M14.5856 33.94H23.7933C31.4665 33.94 34.5357 30.8708 34.5357 23.1976V13.9899C34.5357 6.3168 31.4665 3.24756 23.7933 3.24756H14.5856C6.91251 3.24756 3.84326 6.3168 3.84326 13.9899V23.1976C3.84326 30.8708 6.91251 33.94 14.5856 33.94Z" stroke="#9FA6B9" stroke-width="2.30193" stroke-linecap="round" stroke-linejoin="round"/>
<path d="M19.191 23.9611C22.1574 23.9611 24.5622 21.5563 24.5622 18.5899C24.5622 15.6235 22.1574 13.2188 19.191 13.2188C16.2246 13.2188 13.8198 15.6235 13.8198 18.5899C13.8198 21.5563 16.2246 23.9611 19.191 23.9611Z" stroke="#9FA6B9" stroke-width="2.30193" stroke-linecap="round" stroke-linejoin="round"/>
<path d="M27.8409 10.9221H27.8587" stroke="#9FA6B9" stroke-width="3.06924" stroke-linecap="round" stroke-linejoin="round"/>
</svg>
