<svg width="37" height="31" viewBox="0 0 37 31" fill="none" xmlns="http://www.w3.org/2000/svg">
<path d="M35.0595 1.84112C33.59 2.87772 31.9628 3.67055 30.2408 4.18909C29.3166 3.12638 28.0883 2.37316 26.722 2.0313C25.3557 1.68943 23.9174 1.77543 22.6016 2.27764C21.2858 2.77986 20.156 3.67407 19.3649 4.83933C18.5739 6.0046 18.1598 7.38469 18.1787 8.79296V10.3276C15.4818 10.3975 12.8095 9.79938 10.3997 8.58647C7.98995 7.37355 5.90172 5.6776 4.3671 3.37574C4.3671 3.37574 -1.77139 17.1873 12.0402 23.3258C8.8797 25.4712 5.1147 26.5469 1.29785 26.3951C15.1095 34.0682 31.9903 26.3951 31.9903 8.74692C31.9889 8.31945 31.9478 7.89304 31.8675 7.47318C33.4338 5.92857 34.539 3.9784 35.0595 1.84112Z" stroke="#9FA6B9" stroke-width="2.30193" stroke-linecap="round" stroke-linejoin="round"/>
</svg>
